Patient4_TMGait_0pt4_02_left_34_EMG.mot
version=1
nRows=26
nColumns=33
inDegrees=no
endheader
time	1LAddLong	2LGlutMax	3LGlutMed	4LIliopsoas	5LSemiMemb	6LBicFemLong	7LRecFem	8LVastMed	9LVastLat	10LGasMed	11LTibAnt	12lTibPost	13LPeroneusLong	14LSol	15LExtDigLong	16LFlexDigLong	17RAddLong	18RGlutMax	19RGlutMed	20RIliopsoas	21RSemiMemb	22RBicFemLong	23RRecFem	24RVastMed	25RVastLat	26RGasMed	27RTibAnt	28RTibPost	29RPeroneusLong	30RSol	31RExtDigLong	32RFlexDigLong
45.47	0.022125	0.005188	0.026398	0.016479	-0.040894	-0.042419	0.037384	0.016479	-0.22415	0.008087	-0.074463	-0.002594	-0.006714	-0.064545	0.10376	-0.000458	-0.020447	-0.034637	0.7283	-0.074921	0.097656	-0.039063	0.012207	0.076599	0.21606	-0.000763	-0.22003	-0.002136	-0.045013	0.23789	-0.004272	-0.00473
45.471	0.007629	-0.022736	0.014343	0.03418	0.001678	-0.036621	0.039368	0.021515	-0.23346	-0.0177	-0.020447	-0.000916	-0.027313	-0.075073	0.048523	0.011139	0.000763	-0.082245	-0.19867	-0.020905	0.003204	-0.071716	0.049744	0.011597	0.23086	-0.007019	-0.16785	-0.002289	0.070953	0.28412	-0.00351	-0.017242
45.472	0.012665	-0.032501	0.007172	0.02533	0.02533	0.007629	0.056305	0.024719	-0.2211	-0.00473	0.00946	-0.003815	-0.014191	-0.028076	-0.001984	-0.004578	0.010986	-0.09903	-0.36545	-0.11841	-0.21698	0.02655	-0.027924	0.00824	0.25223	-0.007629	-0.11475	-0.001831	0.085144	0.22369	-0.003815	-0.005493
45.473	0.006561	-0.050964	0.007324	0.020447	0.007477	0.019379	0.055542	0.021515	-0.23804	0.015717	-0.002441	-0.005951	-0.018158	-0.015259	0.032349	-0.000916	0.020294	-0.16861	0.072327	-0.099792	-0.29816	0.1416	-0.056305	-0.028992	0.2211	-0.003967	-0.044556	0.000305	0.042877	0.15533	-0.005646	-0.004883
45.474	0.018158	-0.063324	-0.001526	0.001831	0.025635	0.029144	0.052643	0.017548	-0.22827	0.022125	-0.053406	-0.000153	-0.001831	-0.059204	-0.28076	-0.006256	0.009613	-0.091553	0.02243	-0.074158	0.091248	0.41443	-0.035858	-0.078125	-0.002594	-0.021667	0.016479	0.004425	-0.041046	0.14236	0.000763	-0.007019
45.475	0.017395	-0.063324	0.007477	0.008698	0.025787	0.051117	0.040131	0.016022	-0.20599	0.023956	-0.11734	0.000153	0.021973	-0.084229	-0.15518	-0.011597	-0.030365	-0.22888	0.36804	-0.10773	0.25299	0.42877	0.043945	-0.005188	-0.42664	-0.013733	0.069885	-0.000153	-0.14252	0.11063	0.001068	-0.005798
45.476	0.014648	-0.054626	-0.019226	0.013123	0.011902	0.070038	0.007782	0.021515	-0.18875	0.015259	-0.12665	-0.002289	0.030365	-0.057983	-0.039215	-0.007782	-0.040588	-0.24735	0.18036	-0.048218	0.21912	0.27054	0.12756	0.012665	-0.35568	0.002747	0.024719	-0.005493	0.33615	0.097504	-0.002441	-0.012817
45.477	0.009613	-0.088348	-0.024414	0.002747	0.013733	0.040436	-0.003662	0.019226	-0.17502	0.006104	-0.12955	-0.000458	-0.00824	-0.058899	0.063324	-0.005035	-0.018158	-0.20111	0.016174	0.097656	0.1474	0.22369	0.19272	-0.14526	-0.33508	-0.016174	0.034485	-0.003357	0.009613	0.11124	-0.003815	-0.006409
45.478	0.010376	-0.081329	-0.040131	-0.011444	-0.00824	0.023956	-0.018158	0.017548	-0.15427	-0.012817	-0.07782	0.003204	-0.012207	-0.069885	-0.014343	0.003052	-0.010986	-0.14954	-0.062714	0.15137	0.068054	0.20966	0.067902	-0.017548	-0.28824	0.020294	0.006561	-0.007477	-0.70618	0.17273	-0.011597	-0.005341
45.479	0.012817	-0.077057	-0.018005	-0.004578	0.008392	0.010376	-0.026245	0.022125	-0.13962	-0.027466	0.10437	0.006561	0.016632	-0.10849	0.041351	-0.001984	-0.004578	-0.11658	-0.019836	0.046692	0.020447	0.24231	-0.20187	0.049591	-0.16113	-0.033264	0.086823	-0.010529	-0.10727	0.13657	-0.003052	-0.002747
45.48	0.019989	-0.058746	0.01709	0.007782	0.060577	0.026703	-0.055389	0.016022	-0.13702	-0.075378	0.10986	0.002441	0.1062	-0.1001	0.027161	-0.009308	-0.010071	-0.15839	0.19058	0.009308	0.006561	0.14084	-0.27405	0.23758	0.027618	-0.030365	0.10773	-0.026245	-0.37781	0.1619	-0.002441	-0.002441
45.481	-0.002136	-0.047607	0.000153	0.006866	0.038757	0.049591	-0.042877	0.020142	-0.13428	-0.037537	0.054779	0.002747	0.067902	-0.087128	-0.10376	-0.001831	-0.004883	-0.11444	0.33157	0.088348	-0.020599	0.049286	-0.023499	0.18829	-0.041504	0.017242	0.085449	-0.006256	-0.35568	0.16205	0.002136	0.000305
45.482	0.018921	-0.06012	0.014801	0.005493	0.026093	0.030823	-0.045013	0.015717	-0.12955	0.007629	0.081482	0.005951	0.026093	-0.10895	-0.13367	-0.007477	0.003052	-0.11643	0.64163	0.13306	-0.060577	0.027924	0.1355	0.083466	-0.088501	0.011444	0.11887	0.035858	0.097961	0.15335	-0.005035	-0.003967
45.483	0.017853	-0.032349	0.010681	0.007324	-0.00351	0.041962	-0.045013	0.014954	-0.10101	0.015259	0.046387	0.004883	0.008698	-0.065308	-0.010223	-0.00473	0.022278	0.037994	0.68268	0.13657	-0.048828	0.022125	0.18509	-0.05661	-0.062866	0.009766	0.1358	0.011902	1.6133	0.15457	-0.002289	-0.01236
45.484	0.007629	-0.070343	0.006104	0.008392	-0.022278	0.041656	-0.024567	0.028839	-0.078125	0.000916	0.058136	-0.001831	-0.007629	-0.054321	0.03418	-0.005951	0.020905	-0.083466	0.54703	0.0737	-0.024719	0.054474	0.19302	-0.098267	-0.049591	0.014191	0.22369	0.010681	0.3006	-0.088806	-0.005493	-0.006561
45.485	0.010071	-0.074768	-0.017548	0.02121	-0.041809	0.040741	-0.002441	0.008545	-0.046692	-0.011749	-0.006866	0.010529	0.018463	-0.065002	0.056152	-0.008087	0.011444	-0.095673	0.21194	0.1207	-0.013733	0.053253	0.13611	-0.022736	-0.013885	0.019989	0.06546	-0.004883	0.95642	-0.24368	-0.007019	0.003967
45.486	0.006409	-0.091553	-0.045929	0.000153	-0.065613	0.039978	-0.031586	0.022278	-0.018005	0.006714	0.14847	0.005951	-0.007935	-0.071869	0.082397	0.001221	0.009003	-0.069885	0.094452	0.11154	0.00351	0.04776	0.065918	0.02121	0.053253	0.006561	0.050049	-0.011597	-0.5571	-0.036621	-0.007172	0.001221
45.487	0.005798	-0.085144	-0.021973	0.003357	-0.085754	0.019836	-0.030365	0.018158	0.005341	0.036469	0.26321	0.008087	-0.046997	-0.064087	0.11368	0.001373	0.00061	-0.10712	-0.12207	0.096893	-0.011597	0.061798	0.1503	0.026093	0.063782	0.000458	-0.096283	-0.003204	-1.3545	-0.017548	-0.00412	-0.006256
45.488	0.017548	-0.085602	-0.014954	0.008698	-0.072784	-0.013123	-0.043488	0.015717	0.013733	0.048218	0.12146	0.005646	-0.023651	-0.043793	0.12909	-0.013275	0.01236	-0.04837	0.3035	0.017242	-0.027771	0.050659	0.15366	0.060425	0.056458	0.009003	-0.28351	-0.008087	0.70175	-0.27802	-0.000916	-0.006561
45.489	0.021057	-0.049744	0.004425	-0.000305	-0.045929	0.002594	-0.032959	0.018616	0.04303	0.023651	-0.27863	0.003662	0.030518	-0.04364	0.066071	-0.002594	-0.003052	0.009155	0.41672	-0.003662	-0.028076	0.032196	0.050964	0.00473	-0.024261	0.005035	0.001678	-0.000763	-0.6926	-0.026093	-0.001068	-0.00946
45.49	0.015411	-0.069275	0.008087	0.002594	0.032501	-0.011292	-0.025482	0.008698	0.048218	-0.037537	-0.25696	0.011749	0.066223	-0.061188	-0.04303	-0.016022	-0.002594	0.027618	0.68542	-0.070648	-0.039673	0.044403	-0.0914	-0.059357	-0.035706	0.003662	0.12405	-0.000305	-1.284	-0.064545	-0.005951	-0.005951
45.491	0.013885	-0.069122	-0.002899	-0.005035	0.004272	0.007935	-0.013123	0.019684	0.042572	-0.10529	-0.099792	0.000916	0.071564	-0.061798	-0.068665	-0.005646	0.006104	0.005341	0.22049	-0.058289	-0.0177	0.049286	-0.1059	-0.046082	0.018768	-0.007019	-0.049896	-0.003662	0.44723	-0.042725	-0.002136	-0.014648
45.492	0.023499	-0.061493	0.001373	-0.012665	-0.011902	0.020447	-0.002899	0.015411	0.048523	-0.035706	-0.00946	0.002899	0.034332	-0.064392	-0.13001	-0.007477	0.016937	0.010681	0.11429	-0.064392	0.005646	0.062256	0.016479	-0.036621	-0.054016	-0.011292	-0.071869	-0.001678	0.73303	0.019226	-0.000763	-0.00946
45.493	0.016022	-0.077515	-0.041962	-0.003662	-0.015259	0.041046	-0.022736	0.012207	0.053558	-0.001373	0.019226	0.007782	-0.005188	-0.086517	-0.048523	0.000916	0.022278	0.052032	0.34241	-0.13947	0.098877	0.046692	0.079803	-0.05249	-0.071869	-0.000763	-0.077515	-0.000153	1.2457	0.081635	-0.004578	-0.012817
45.494	0.020599	-0.07431	-0.048828	-0.006866	-0.026245	0.062714	-0.013275	0.018158	0.061798	0.067902	-0.003662	0.006561	-0.019531	-0.093842	0.12726	0.001526	0.022736	0.048981	-0.32486	-0.20416	0.12253	-0.00885	0.10681	-0.033417	-0.068054	0.001068	-0.13397	-0.00473	0.17853	0.004272	-0.002136	-0.009308
45.495	0.016632	-0.077209	-0.030975	0.001068	-0.033112	0.074463	0.000153	0.020752	0.06958	0.032043	-0.005188	0.00885	0.014343	-0.058594	0.22293	-0.007172	0.007324	-0.028992	-0.3305	-0.14191	-0.041504	0.025787	0.14252	-0.074463	-0.045929	0.001373	0.015411	-0.001678	-0.67963	-0.099335	-0.001373	-0.001221
